<?xml version="1.0" encoding="utf-8"?><svg xml:space="preserve" viewBox="0 0 100 100" y="0" x="0" xmlns="http://www.w3.org/2000/svg" id="Layer_1" version="1.1" width="200px" height="200px" xmlns:xlink="http://www.w3.org/1999/xlink" style="width:100%;height:100%;background-size:initial;background-repeat-y:initial;background-repeat-x:initial;background-position-y:initial;background-position-x:initial;background-origin:initial;background-color:initial;background-clip:initial;background-attachment:initial;animation-play-state:paused" ><g class="ldl-scale" style="transform-origin:50% 50%;transform:rotate(0deg) scale(0.8, 0.8);animation-play-state:paused" ><path fill="#f47e5f" d="M50 7.5c3.6 2.7 5.9 7 5.9 11.8s-2.3 9.1-5.9 11.8c-3.6-2.7-5.9-7-5.9-11.8s2.3-9.1 5.9-11.8z" style="fill:rgb(45, 101, 188);animation-play-state:paused" ></path>
<path fill="#e15c64" d="M29.5 26.3c2.4 4.2 6.6 6.7 11 7.3 1.8-4.1 1.6-9-.8-13.2s-6.6-6.7-11-7.3c-1.7 4.2-1.6 9.1.8 13.2z" style="fill:rgb(16, 203, 206);animation-play-state:paused" ></path>
<path fill="#f7b26a" d="M20.5 39.7c4.2 2.4 9 2.5 13.2.8-.5-4.4-3.1-8.6-7.3-11s-9-2.5-13.2-.8c.5 4.5 3.1 8.6 7.3 11z" style="fill:rgb(30, 45, 109);animation-play-state:paused" ></path>
<path fill="#f47e5f" d="M19.3 55.9c4.8 0 9.1-2.3 11.8-5.9-2.7-3.6-7-5.9-11.8-5.9S10.2 46.4 7.5 50c2.7 3.6 7 5.9 11.8 5.9z" style="fill:rgb(45, 101, 188);animation-play-state:paused" ></path>
<path fill="#e15c64" d="M26.3 70.5c4.2-2.4 6.7-6.6 7.3-11-4.1-1.8-9-1.6-13.2.8s-6.7 6.6-7.3 11c4.2 1.7 9.1 1.6 13.2-.8z" style="fill:rgb(16, 203, 206);animation-play-state:paused" ></path>
<path fill="#f7b26a" d="M39.7 79.5c2.4-4.2 2.5-9 .8-13.2-4.4.5-8.6 3.1-11 7.3s-2.5 9-.8 13.2c4.5-.5 8.6-3.1 11-7.3z" style="fill:rgb(30, 45, 109);animation-play-state:paused" ></path>
<path fill="#f47e5f" d="M55.9 80.7c0-4.8-2.3-9.1-5.9-11.8-3.6 2.7-5.9 7-5.9 11.8s2.3 9.1 5.9 11.8c3.6-2.7 5.9-7 5.9-11.8z" style="fill:rgb(45, 101, 188);animation-play-state:paused" ></path>
<path fill="#e15c64" d="M70.5 73.7c-2.4-4.2-6.6-6.7-11-7.3-1.8 4.1-1.6 9 .8 13.2s6.6 6.7 11 7.3c1.7-4.2 1.6-9.1-.8-13.2z" style="fill:rgb(16, 203, 206);animation-play-state:paused" ></path>
<path fill="#f7b26a" d="M79.5 60.3c-4.2-2.4-9-2.5-13.2-.8.5 4.4 3.1 8.6 7.3 11s9 2.5 13.2.8c-.5-4.5-3.1-8.6-7.3-11z" style="fill:rgb(30, 45, 109);animation-play-state:paused" ></path>
<path fill="#f47e5f" d="M80.7 44.1c-4.8 0-9.1 2.3-11.8 5.9 2.7 3.6 7 5.9 11.8 5.9s9.1-2.3 11.8-5.9c-2.7-3.6-7-5.9-11.8-5.9z" style="fill:rgb(45, 101, 188);animation-play-state:paused" ></path>
<path fill="#e15c64" d="M73.7 29.5c-4.2 2.4-6.7 6.6-7.3 11 4.1 1.8 9 1.6 13.2-.8s6.7-6.6 7.3-11c-4.2-1.7-9.1-1.6-13.2.8z" style="fill:rgb(16, 203, 206);animation-play-state:paused" ></path>
<path fill="#f7b26a" d="M60.3 20.5c-2.4 4.2-2.5 9-.8 13.2 4.4-.5 8.6-3.1 11-7.3s2.5-9 .8-13.2c-4.5.5-8.6 3.1-11 7.3z" style="fill:rgb(30, 45, 109);animation-play-state:paused" ></path>
<metadata xmlns:d="https://loading.io/stock/" style="animation-play-state:paused" ><d:name style="animation-play-state:paused" >leaf</d:name>


<d:tags style="animation-play-state:paused" >flower,plant,loader,spinner,preloader,loading icon,leaf</d:tags>


<d:license style="animation-play-state:paused" >by</d:license>


<d:slug style="animation-play-state:paused" >yoznrn</d:slug></metadata></g><!-- generated by https://loading.io/ --></svg>